<svg width="16" height="19" viewBox="0 0 16 19" fill="none" xmlns="http://www.w3.org/2000/svg">
<path d="M16 7.37913C16 13.2879 8.76832 18.7602 8.76832 18.7602C8.34577 19.0799 7.65423 19.0799 7.23168 18.7602C7.23168 18.7602 0 13.2879 0 7.37913C8.04633e-05 3.30374 3.58178 0 8.00002 0C12.4183 0 16 3.30374 16 7.37913Z" fill="#F2754E"/>
<path fill-rule="evenodd" clip-rule="evenodd" d="M8 11C6.34576 11 5 9.6542 5 8.00003C5 6.34586 6.34582 5 8 5C9.65418 5 11 6.3458 11 7.99997C11 9.65414 9.65424 11 8 11Z" fill="white"/>
</svg>
