<svg width="32" height="32" viewBox="0 0 32 32" fill="none" xmlns="http://www.w3.org/2000/svg">
<circle cx="16" cy="16" r="16" fill="#57BCF9"/>
<path d="M16.5515 7.00349C11.4615 6.86349 7.29153 10.9535 7.29153 16.0035H5.50153C5.05153 16.0035 4.83153 16.5435 5.15153 16.8535L7.94153 19.6535C8.14153 19.8535 8.45153 19.8535 8.65153 19.6535L11.4415 16.8535C11.5106 16.783 11.5573 16.6936 11.5757 16.5966C11.5941 16.4996 11.5834 16.3994 11.5449 16.3085C11.5064 16.2176 11.4418 16.1401 11.3594 16.0858C11.2769 16.0316 11.1802 16.0029 11.0815 16.0035H9.29153C9.29153 12.1035 12.4715 8.95349 16.3915 9.00349C20.1115 9.05349 23.2415 12.1835 23.2915 15.9035C23.3415 19.8135 20.1915 23.0035 16.2915 23.0035C14.6815 23.0035 13.1915 22.4535 12.0115 21.5235C11.82 21.3726 11.5797 21.2974 11.3363 21.3121C11.0929 21.3269 10.8634 21.4306 10.6915 21.6035C10.2715 22.0235 10.3015 22.7335 10.7715 23.0935C12.3427 24.336 14.2885 25.0092 16.2915 25.0035C21.3415 25.0035 25.4315 20.8335 25.2915 15.7435C25.1615 11.0535 21.2415 7.13349 16.5515 7.00349ZM16.0415 12.0035C15.6315 12.0035 15.2915 12.3435 15.2915 12.7535V16.4335C15.2915 16.7835 15.4815 17.1135 15.7815 17.2935L18.9015 19.1435C19.2615 19.3535 19.7215 19.2335 19.9315 18.8835C20.1415 18.5235 20.0215 18.0635 19.6715 17.8535L16.7915 16.1435V12.7435C16.7915 12.3435 16.4515 12.0035 16.0415 12.0035Z" fill="white"/>
</svg>
