<svg width="32" height="32" viewBox="0 0 32 32" fill="none" xmlns="http://www.w3.org/2000/svg">
<circle cx="16" cy="16" r="16" fill="#E12424"/>
<path d="M18.448 9.51006C18.4023 8.26009 17.6275 7.23353 16.6147 7.13554C15.6943 7.04649 14.7462 7 13.778 7C12.8097 7 11.8616 7.04649 10.9412 7.13554C9.92842 7.23354 9.15361 8.26009 9.10786 9.51006C9.03721 11.4406 9 13.4446 9 15.5C9 17.5554 9.03721 19.5594 9.10786 21.49C9.15361 22.74 9.92842 23.7665 10.9412 23.8644C11.8616 23.9535 12.8097 24 13.778 24C14.7462 24 15.6943 23.9535 16.6147 23.8644C17.6275 23.7665 18.4023 22.74 18.448 21.49" stroke="white" stroke-width="1.71429" stroke-linecap="round"/>
<path d="M21.4785 19.5279C23.1917 18.1242 24.0478 17.2682 25.3833 15.6229C24.0478 13.9776 23.1917 13.1217 21.4785 11.718" stroke="white" stroke-width="1.71429" stroke-linecap="round" stroke-linejoin="round"/>
<path d="M13.2866 15.6232H25.3399" stroke="white" stroke-width="1.71429" stroke-linecap="round" stroke-linejoin="round"/>
</svg>
