<svg width="32" height="32" viewBox="0 0 32 32" fill="none" xmlns="http://www.w3.org/2000/svg">
<circle cx="16" cy="16" r="16" fill="#F2754E"/>
<path d="M7.75008 20.5833H24.2501C24.7542 20.5833 25.1667 20.9958 25.1667 21.5C25.1667 22.0041 24.7542 22.4166 24.2501 22.4166H7.75008C7.24591 22.4166 6.83341 22.0041 6.83341 21.5C6.83341 20.9958 7.24591 20.5833 7.75008 20.5833ZM7.29175 16.5225C7.62175 16.715 8.04341 16.5958 8.23591 16.2658L8.66675 15.5141L9.10675 16.275C9.29925 16.605 9.72092 16.715 10.0509 16.5316C10.3809 16.3391 10.4909 15.9266 10.3076 15.5966L9.85842 14.8266H10.7292C11.1051 14.8266 11.4167 14.515 11.4167 14.1391C11.4167 13.7633 11.1051 13.4516 10.7292 13.4516H9.85842L10.2892 12.7C10.4817 12.37 10.3717 11.9483 10.0417 11.7558C9.71175 11.5725 9.29008 11.6825 9.09758 12.0125L8.66675 12.7641L8.23591 12.0125C8.04341 11.6825 7.62175 11.5725 7.29175 11.7558C6.96175 11.9483 6.85175 12.37 7.04425 12.7L7.47508 13.4516H6.60425C6.22841 13.4516 5.91675 13.7633 5.91675 14.1391C5.91675 14.515 6.22841 14.8266 6.60425 14.8266H7.47508L7.03508 15.5875C6.85175 15.9175 6.96175 16.3391 7.29175 16.5225ZM14.6251 16.5225C14.9551 16.715 15.3767 16.5958 15.5692 16.2658L16.0001 15.5141L16.4401 16.275C16.6326 16.605 17.0542 16.715 17.3842 16.5316C17.7142 16.3391 17.8242 15.9266 17.6409 15.5966L17.2009 14.8358H18.0717C18.4476 14.8358 18.7592 14.5241 18.7592 14.1483C18.7592 13.7725 18.4476 13.4608 18.0717 13.4608H17.1917L17.6226 12.7091C17.8151 12.3791 17.6959 11.9575 17.3751 11.765C17.0451 11.5725 16.6234 11.6916 16.4401 12.0125L16.0001 12.7641L15.5692 12.0125C15.3767 11.6825 14.9551 11.5725 14.6342 11.765C14.3042 11.9575 14.1942 12.3791 14.3867 12.7091L14.8176 13.4608H13.9376C13.5617 13.4516 13.2501 13.7633 13.2501 14.1391C13.2501 14.515 13.5617 14.8266 13.9376 14.8266H14.8084L14.3684 15.5875C14.1851 15.9175 14.2951 16.3391 14.6251 16.5225ZM26.0834 14.1391C26.0834 13.7633 25.7717 13.4516 25.3959 13.4516H24.5251L24.9559 12.7C25.1484 12.37 25.0292 11.9483 24.7084 11.7558C24.3784 11.5633 23.9567 11.6825 23.7734 12.0033L23.3334 12.7641L22.9026 12.0125C22.7101 11.6825 22.2884 11.5725 21.9676 11.765C21.6376 11.9575 21.5276 12.3791 21.7201 12.7091L22.1509 13.4608H21.2801C20.8951 13.4516 20.5834 13.7633 20.5834 14.1391C20.5834 14.515 20.8951 14.8266 21.2709 14.8266H22.1418L21.7017 15.5875C21.5092 15.9175 21.6284 16.3391 21.9584 16.5225C22.2884 16.715 22.7101 16.5958 22.9026 16.2658L23.3334 15.5141L23.7734 16.275C23.9659 16.605 24.3876 16.715 24.7176 16.5316C25.0476 16.3391 25.1576 15.9266 24.9743 15.5966L24.5342 14.8358H25.4051C25.7717 14.8266 26.0834 14.515 26.0834 14.1391Z" fill="white"/>
</svg>
