<svg width="32" height="32" viewBox="0 0 32 32" fill="none" xmlns="http://www.w3.org/2000/svg">
<circle cx="16" cy="16" r="16" fill="#FFAB0F"/>
<path fill-rule="evenodd" clip-rule="evenodd" d="M20.9255 17.3255C22.1257 16.1253 22.8 14.4974 22.8 12.8C22.8 11.1026 22.1257 9.47477 20.9255 8.27454C19.7253 7.07431 18.0974 6.40002 16.4 6.40002C14.7026 6.40002 13.0747 7.07431 11.8745 8.27454C10.6743 9.47477 10 11.1026 10 12.8C10 14.4974 10.6743 16.1253 11.8745 17.3255C13.0747 18.5257 14.7026 19.2 16.4 19.2C18.0974 19.2 19.7253 18.5257 20.9255 17.3255ZM8.152 22.8928C14.3888 22.2024 18.4512 22.2648 24.6576 22.9072C25.1202 22.9555 25.5588 23.1376 25.9195 23.4313C26.2802 23.725 26.5475 24.1175 26.6886 24.5607C26.8297 25.0039 26.8385 25.4787 26.7139 25.9269C26.5893 26.375 26.3368 26.7771 25.9872 27.084C22.3272 30.2744 19.2792 32.012 16.1816 32C13.0752 31.9888 10.1616 30.2216 6.7688 27.0736C6.52589 26.8473 6.33224 26.5734 6.19996 26.2689C6.06768 25.9645 5.99961 25.636 6 25.304C5.99884 24.7075 6.21777 24.1316 6.61486 23.6866C7.01194 23.2415 7.55927 22.9586 8.152 22.892V22.8928Z" fill="white"/>
</svg>
