<svg width="96" height="96" viewBox="0 0 96 96" fill="none" xmlns="http://www.w3.org/2000/svg">
<circle opacity="0.1" cx="48" cy="48" r="48" fill="#EF5222"/>
<mask id="mask0_790_47250" style="mask-type:alpha" maskUnits="userSpaceOnUse" x="0" y="0" width="96" height="96">
<circle cx="48" cy="48" r="48" fill="#EF5222"/>
</mask>
<g mask="url(#mask0_790_47250)">
<path d="M54.9716 47.0479C55.0857 47.0532 55.1986 47.0232 55.2951 46.9622C55.3916 46.9011 55.467 46.8118 55.511 46.7065C55.5551 46.6011 55.5657 46.4848 55.5414 46.3732C55.5171 46.2616 55.4591 46.1602 55.3752 46.0827C55.3612 46.0269 55.3511 45.9868 55.3371 45.931C55.3421 45.9188 55.3472 45.9067 55.3522 45.8945C55.865 44.672 57.6027 44.6804 58.111 45.9048C58.5622 46.9915 59.1367 48.0801 59.2782 49.2291C59.3405 49.737 59.3142 50.2519 59.2005 50.7508C60.2603 48.439 60.8106 45.9264 60.8141 43.3834C60.8143 42.7452 60.7789 42.1075 60.7079 41.4733C60.6493 40.9534 60.5679 40.4372 60.4638 39.9247C59.8958 37.1439 58.6762 34.5375 56.9053 32.3195C56.0482 31.8519 55.355 31.1327 54.9192 30.2589C54.7613 29.9449 54.6497 29.6096 54.5879 29.2635C54.6846 29.2762 54.9525 27.8037 54.8795 27.7133C55.0143 27.5088 55.2555 27.4072 55.4026 27.2077C56.1345 26.2154 57.1429 26.3886 57.6693 27.7371C58.7938 28.3046 58.8047 29.2459 58.1147 30.1512C57.6757 30.7271 57.6154 31.5064 57.2302 32.123C57.2699 32.1737 57.3111 32.2228 57.3507 32.2736C58.0751 33.205 58.7065 34.2052 59.2357 35.2599C59.086 34.0902 59.3071 32.681 59.6839 31.7727C60.113 30.7377 60.9171 29.8661 61.6253 28.9713C62.4759 27.8966 64.2201 28.3656 64.37 29.728C64.3714 29.7412 64.3728 29.7544 64.3742 29.7676C64.269 29.8269 64.1661 29.8899 64.0653 29.9565C63.9388 30.0411 63.8407 30.1619 63.784 30.3031C63.7273 30.4444 63.7145 30.5994 63.7475 30.748C63.7804 30.8966 63.8574 31.0318 63.9685 31.1359C64.0796 31.24 64.2195 31.3081 64.3699 31.3312L64.3853 31.3336C64.3478 31.7127 64.2816 32.0884 64.1872 32.4574C65.0956 35.9707 63.1343 37.2503 60.3338 37.3078C60.272 37.3395 60.2118 37.3712 60.15 37.4013C60.6817 38.9082 61.0153 40.4779 61.1422 42.0709C61.2141 43.0107 61.2099 43.9548 61.1295 44.8939L61.1343 44.8606C61.3372 43.8163 61.8943 42.8741 62.7115 42.193C63.9252 41.1959 65.6399 40.8288 66.9493 40.0274C67.5796 39.6416 68.3873 40.1401 68.2773 40.8709C68.2755 40.8825 68.2738 40.8942 68.2719 40.9059C68.0767 40.9854 67.8867 41.077 67.7029 41.1801C67.5977 41.2394 67.4948 41.3024 67.394 41.369C67.2675 41.4536 67.1694 41.5744 67.1127 41.7156C67.056 41.8569 67.0432 42.012 67.0761 42.1606C67.1091 42.3092 67.1861 42.4444 67.2972 42.5484C67.4082 42.6525 67.5482 42.7206 67.6986 42.7438L67.714 42.7461C67.7251 42.7477 67.7346 42.7493 67.7457 42.7509C67.4122 43.5472 66.9441 44.2802 66.3619 44.9177C65.7939 47.9846 63.3541 48.2756 60.7444 47.3825H60.7428C60.4564 48.6268 60.0416 49.8379 59.5048 50.9964H55.0824C55.0666 50.9473 55.0523 50.8966 55.038 50.8474C55.4474 50.8732 55.8584 50.8487 56.2617 50.7745C55.9336 50.3719 55.6055 49.9661 55.2774 49.5635C55.2701 49.556 55.2632 49.5481 55.2568 49.5398C55.0904 49.3337 54.9223 49.1292 54.7559 48.9232C54.747 48.2915 54.8196 47.6611 54.9716 47.0479Z" fill="#F2754E" fill-opacity="0.2"/>
<path d="M69.1698 35.7303C68.3475 32.7323 74.9796 30.1615 76.7212 32.5757C76.9634 32.2325 77.8583 32.024 78.269 32.1293C78.6796 32.2346 79.0249 32.4978 79.3619 32.7526C79.8252 33.1085 80.3053 33.477 80.5896 33.9888C80.876 34.4984 80.9202 35.1933 80.5348 35.6355C80.2295 35.9872 79.3282 36.2146 78.8691 36.3073C78.549 36.3725 78.2795 36.4252 78.0479 36.4631C77.8375 36.1599 77.7405 35.7924 77.7741 35.4249C77.6182 35.5301 77.4875 35.6685 77.3914 35.8301C77.2953 35.9918 77.2361 36.1727 77.2182 36.3599C77.2119 36.4378 79.8062 45.9835 79.8062 45.9835C79.4945 46.1609 79.1666 46.3082 78.827 46.4236C78.1552 45.3968 77.6406 44.2753 77.3003 43.0964C77.2221 43.8847 77.232 44.6793 77.3298 45.4654C77.3818 45.9063 77.4563 46.3441 77.553 46.7774C74.4701 47.4428 69.8331 47.2238 67.8158 44.3936C67.8154 44.3819 67.8151 44.3702 67.8148 44.3584C67.8132 44.2467 67.7728 44.139 67.7006 44.0538C67.6283 43.9686 67.5287 43.9111 67.4188 43.8913C67.3088 43.8714 67.1954 43.8904 67.0979 43.945C67.0004 43.9996 66.925 44.0864 66.8844 44.1905C66.8355 44.3153 66.7904 44.4234 66.7502 44.5094C66.1627 42.4078 66.9229 39.9756 69.1698 35.7303Z" fill="#2F2E41"/>
<path d="M63.9239 85.9922V86.0904C63.9199 86.0578 63.9199 86.0248 63.9239 85.9922Z" fill="#2F2E41"/>
<path d="M66.9434 69.0259C67.0217 69.0047 67.1016 68.9892 67.1822 68.9795C67.0896 68.9946 67.01 69.01 66.9434 69.0259Z" fill="#2F2E41"/>
<path d="M66.873 69.0436C66.8942 69.0377 66.9178 69.0318 66.9429 69.0259C66.9195 69.0319 66.8971 69.0364 66.873 69.0436Z" fill="#2F2E41"/>
<path d="M89.1783 95.8161H77.878C77.7168 95.6875 77.6047 95.5072 77.5607 95.3057C77.5166 95.1042 77.5432 94.8937 77.636 94.7095C77.9447 94.0015 77.3398 93.3545 77.3398 93.3545C77.1344 93.1139 76.9917 92.8264 76.9241 92.5174C76.8565 92.2083 76.8663 91.8874 76.9525 91.5831C77.2519 90.5374 76.0786 87.5859 76.0786 87.5859C76.0786 87.5859 75.4461 91.397 74.671 95.8161H63.9239C63.7438 95.5095 63.6489 95.1603 63.6489 94.8047C63.6489 94.4491 63.7438 94.1 63.9239 93.7933C64.5502 92.7313 63.9239 92.5277 63.9239 92.5277C63.9239 92.5277 63.2976 91.3393 63.9239 90.4765C64.5502 89.6136 63.9239 86.0905 63.9239 86.0905C63.9475 86.2462 64.1259 85.963 64.4006 85.3692C64.8188 84.4657 65.458 82.841 66.1037 80.9548C66.5653 79.6086 67.0308 78.1274 67.4197 76.6792H67.4206C67.5226 76.2987 67.6192 75.9217 67.7105 75.5482C67.8889 74.8156 68.0418 74.1038 68.158 73.4354C68.41 71.9957 68.4931 70.759 68.2996 69.9547C68.1391 69.2853 67.7879 68.9162 67.1818 68.9794C67.5066 68.9256 67.9824 68.8747 68.5686 68.8265C68.6744 68.818 68.7839 68.8095 68.8971 68.8001C73.27 68.4697 82.6521 68.2799 82.6521 68.2799L85.5258 73.4259L89.1651 79.9447C89.1651 79.9447 89.066 88.6895 89.1783 95.8161Z" fill="#2F2E41"/>
<path d="M77.1167 46.0376L70.496 44.6332L69.1814 47.2792L64.7545 49.8422C64.7545 49.8422 67.608 61.5096 67.5918 63.1506C67.5504 67.3168 60.8844 76.656 65.9195 75.9376C70.9546 75.2191 71.9773 72.2096 73.5937 72.6855C75.0515 73.1147 76.8315 75.0238 78.0232 73.6584C79.2149 72.293 79.6346 73.8697 80.3882 73.9242C80.7463 73.9501 80.5306 72.2 81.4316 73.9785C82.3326 75.7571 87.1104 73.363 85.4911 71.7437C82.7941 69.0467 82.246 49.166 82.246 49.166L79.2438 48.2422L77.1167 46.0376Z" fill="#F2754E"/>
<path d="M64.6289 88.4089C64.8949 88.0916 65.0266 87.6832 64.9961 87.2703C64.9655 86.8574 64.775 86.4728 64.4652 86.1982C64.4014 86.1434 64.3331 86.094 64.2611 86.0504L65.368 80.6176L62.809 79.0859L62.0972 86.6922C61.9397 87.0048 61.8902 87.3607 61.9562 87.7045C62.0223 88.0482 62.2003 88.3604 62.4625 88.5923C62.6129 88.7228 62.7876 88.8224 62.9765 88.8855C63.1655 88.9485 63.365 88.9737 63.5636 88.9596C63.7623 88.9455 63.9563 88.8925 64.1344 88.8034C64.3126 88.7144 64.4715 88.5911 64.602 88.4407C64.6111 88.4302 64.6201 88.4196 64.6289 88.4089Z" fill="#FFB6B6"/>
<path d="M72.5751 59.772C72.5591 59.5973 72.3363 59.518 72.0276 59.4085C71.7175 59.313 71.4228 59.1734 71.1524 58.9941C70.4689 58.5003 70.738 57.9839 71.1099 57.2702C71.1826 57.1314 71.2582 56.987 71.329 56.8369C71.5395 56.3922 71.2044 54.5579 70.3311 51.384C70.062 50.4069 70.063 49.7168 69.877 49.2589C69.692 48.8011 69.3209 48.5754 68.3098 48.5282C67.0877 48.4665 65.891 48.8919 64.982 49.7111C64.9575 49.7328 64.932 49.7564 64.9074 49.7791C64.8612 49.8225 64.8159 49.8669 64.7715 49.9122C63.9309 50.7579 63.4499 51.8958 63.429 53.088L63.4243 53.291L63.2157 62.9884L62.6294 71.4981L61.8213 83.2205L62.4198 83.2497L64.8083 83.3687L65.0981 83.3828L65.7854 80.4997L66.6124 77.0303L66.9164 75.7558L67.8595 71.8021L68.2995 69.9546L68.5685 68.8264L68.678 68.3657L69.2124 66.1264C69.2246 66.0792 70.4538 61.2296 71.8709 60.4186C72.3995 60.1165 72.5902 59.9409 72.5751 59.772Z" fill="#F2754E"/>
<path d="M88.474 88.3512C88.1755 88.0644 88.0006 87.6724 87.9867 87.2587C87.9727 86.8449 88.1208 86.442 88.3993 86.1358C88.4569 86.0744 88.5195 86.0179 88.5864 85.9669L86.9023 80.6844L89.2822 78.8867L90.8067 86.3726C90.9969 86.6665 91.0844 87.015 91.0556 87.3638C91.0268 87.7127 90.8834 88.0422 90.6476 88.3009C90.5121 88.4468 90.3491 88.5647 90.168 88.6476C89.987 88.7306 89.7913 88.777 89.5923 88.7844C89.3932 88.7917 89.1947 88.7598 89.008 88.6904C88.8213 88.621 88.6501 88.5155 88.5041 88.38C88.494 88.3705 88.4839 88.361 88.474 88.3512Z" fill="#A0616A"/>
<path d="M89.6384 76.8887C89.6384 76.8887 87.7824 70.3583 88.3484 69.6514C88.9145 68.9444 87.2427 68.8063 87.9631 67.4897C88.6835 66.1731 87.6892 65.9529 87.6892 65.9529L87.1496 62.9257L86.185 55.4902L86.1557 55.269L85.8752 53.1058C85.7968 52.4879 85.5946 51.8922 85.2808 51.3543C84.9669 50.8163 84.5478 50.3472 84.0485 49.9749C84.023 49.9554 83.9969 49.9366 83.9709 49.9178C83.8521 49.8324 83.7308 49.7531 83.6069 49.6802C82.6809 49.1339 81.5936 48.9274 80.5318 49.0961C78.5312 49.4077 79.1539 50.1538 78.8294 52.1524C78.3021 55.4022 78.1653 57.2615 78.4224 57.6815C78.509 57.823 78.6 57.9583 78.6868 58.0882C79.1335 58.7588 79.4564 59.2426 78.8295 59.8079C78.5797 60.0146 78.3018 60.1846 78.0041 60.313C77.7095 60.4557 77.4962 60.558 77.4991 60.7334C77.5024 60.9033 77.7106 61.0567 78.2683 61.3C78.9441 61.5958 79.67 62.7139 80.2645 63.8562C80.7362 64.7769 81.1569 65.7229 81.5247 66.6898L86.6346 81.0612L87.468 83.4049L87.7555 83.3595L90.1165 82.9851L90.7086 82.8914L89.6384 76.8887Z" fill="#F2754E"/>
<path d="M74.3234 44.534C77.3066 44.534 79.7249 42.1157 79.7249 39.1325C79.7249 36.1493 77.3066 33.731 74.3234 33.731C71.3402 33.731 68.9219 36.1493 68.9219 39.1325C68.9219 42.1157 71.3402 44.534 74.3234 44.534Z" fill="#FFB6B6"/>
<path d="M66.2216 36.1514C65.3993 33.1534 72.0314 30.5826 73.773 32.9969C74.0152 32.6537 74.9101 32.4452 75.3208 32.5505C75.7314 32.6558 76.0768 32.919 76.4137 33.1738C76.877 33.5297 77.3571 33.8982 77.6414 34.4099C77.9278 34.9195 77.972 35.6144 77.5866 36.0567C77.2813 36.4083 76.38 36.6358 75.9209 36.7284C75.6009 36.7937 75.3313 36.8463 75.0997 36.8842C74.8893 36.5811 74.7924 36.2135 74.8259 35.8461C74.67 35.9512 74.5393 36.0896 74.4432 36.2513C74.3471 36.4129 74.2879 36.5938 74.27 36.7811C74.2637 36.859 76.858 46.4046 76.858 46.4046C76.5463 46.582 76.2184 46.7294 75.8788 46.8448C75.207 45.818 74.6924 44.6965 74.3521 43.5176C74.2739 44.3059 74.2838 45.1005 74.3816 45.8866C74.4336 46.3274 74.5081 46.7653 74.6048 47.1985C71.5219 47.864 66.8849 47.645 64.8675 44.8148C64.8672 44.803 64.8668 44.7913 64.8665 44.7796C64.865 44.6679 64.8246 44.5602 64.7523 44.475C64.6801 44.3897 64.5805 44.3323 64.4705 44.3124C64.3606 44.2926 64.2472 44.3116 64.1497 44.3662C64.0522 44.4208 63.9767 44.5075 63.9362 44.6117C63.8872 44.7365 63.8422 44.8446 63.802 44.9306C63.2145 42.829 63.9747 40.3967 66.2216 36.1514Z" fill="#2F2E41"/>
<path d="M39.4329 54.8161C39.3188 54.8213 39.2059 54.7914 39.1094 54.7303C39.0129 54.6692 38.9375 54.58 38.8935 54.4746C38.8494 54.3693 38.8388 54.2529 38.8631 54.1413C38.8874 54.0297 38.9454 53.9283 39.0292 53.8508C39.0433 53.795 39.0534 53.7549 39.0674 53.6991C39.0624 53.687 39.0573 53.6748 39.0522 53.6627C38.5395 52.4401 36.8019 52.4485 36.2935 53.6729C35.8423 54.7597 35.2678 55.8482 35.1264 56.9972C35.0641 57.5051 35.0904 58.02 35.204 58.5189C34.1443 56.2072 33.594 53.6946 33.5904 51.1515C33.5902 50.5134 33.6257 49.8757 33.6966 49.2415C33.7553 48.7216 33.8367 48.2054 33.9407 47.6929C34.5088 44.9121 35.7283 42.3057 37.4992 40.0877C38.3563 39.6201 39.0495 38.9009 39.4853 38.0271C39.6432 37.713 39.7548 37.3778 39.8166 37.0317C39.7199 37.0444 39.452 35.5718 39.525 35.4815C39.3902 35.277 39.149 35.1754 39.0019 34.9759C38.27 33.9836 37.2616 34.1568 36.7352 35.5053C35.6107 36.0728 35.5998 37.0141 36.2898 37.9193C36.7288 38.4953 36.7891 39.2746 37.1743 39.8912C37.1347 39.9419 37.0934 39.991 37.0538 40.0418C36.3294 40.9732 35.6981 41.9734 35.1688 43.028C35.3186 41.8584 35.0975 40.4492 34.7206 39.5409C34.2916 38.5059 33.4874 37.6342 32.7793 36.7395C31.9287 35.6648 30.1845 36.1338 30.0346 37.4962C30.0332 37.5094 30.0318 37.5226 30.0304 37.5357C30.1356 37.5951 30.2385 37.6581 30.3393 37.7247C30.4658 37.8093 30.5639 37.9301 30.6206 38.0713C30.6773 38.2125 30.69 38.3676 30.6571 38.5162C30.6242 38.6648 30.5472 38.8 30.4361 38.9041C30.325 39.0081 30.1851 39.0762 30.0347 39.0994L30.0193 39.1018C30.0568 39.4809 30.123 39.8566 30.2174 40.2256C29.309 43.7389 31.2702 45.0185 34.0707 45.0759C34.1325 45.1076 34.1928 45.1393 34.2546 45.1695C33.7228 46.6764 33.3893 48.2461 33.2623 49.8391C33.1905 50.7789 33.1947 51.7229 33.275 52.6621L33.2703 52.6288C33.0674 51.5845 32.5103 50.6422 31.6931 49.9611C30.4794 48.9641 28.7647 48.597 27.4553 47.7956C26.825 47.4098 26.0173 47.9083 26.1273 48.639C26.1291 48.6507 26.1309 48.6624 26.1327 48.674C26.3279 48.7535 26.5179 48.8451 26.7017 48.9482C26.8069 49.0076 26.9099 49.0706 27.0106 49.1372C27.1372 49.2218 27.2352 49.3426 27.2919 49.4838C27.3487 49.625 27.3614 49.7801 27.3285 49.9287C27.2955 50.0773 27.2185 50.2125 27.1074 50.3166C26.9964 50.4207 26.8565 50.4887 26.706 50.5119L26.6906 50.5143C26.6795 50.5159 26.67 50.5175 26.6589 50.5191C26.9924 51.3154 27.4605 52.0483 28.0427 52.6859C28.6107 55.7528 31.0504 56.0438 33.6602 55.1506H33.6618C33.9481 56.3949 34.363 57.6061 34.8997 58.7646H39.3221C39.3379 58.7155 39.3522 58.6647 39.3664 58.6156C38.9571 58.6413 38.5461 58.6168 38.1428 58.5427C38.4709 58.1401 38.799 57.7343 39.1271 57.3317C39.1344 57.3242 39.1413 57.3162 39.1477 57.3079C39.3141 57.1019 39.4821 56.8974 39.6486 56.6913L39.6487 56.6911C39.6575 56.0594 39.5851 55.4293 39.433 54.8162L39.4329 54.8161Z" fill="#F2754E" fill-opacity="0.2"/>
<path d="M18.7981 32.5759C18.6977 32.8098 15.6029 32.7848 15.4612 32.993C14.3683 34.601 18.3078 41.4426 17.215 43.0527L17.0627 43.2341C17.4193 43.0698 17.7618 42.8766 18.0868 42.6564C18.116 41.9974 18.1452 41.3362 18.1764 40.6772C18.5038 41.0959 18.768 41.5604 18.9606 42.0558C19.2151 41.8764 19.4238 41.5439 20.5144 40.8899C20.9559 40.4049 21.4649 39.9859 22.0257 39.6458L18.7981 32.5759Z" fill="#2F2E41"/>
<path d="M12.2148 64.2937L13.699 71.0017L24.5514 71.9833L25.5488 66.1425L12.2148 64.2937Z" fill="#FFB6B6"/>
<path d="M28.7921 81.4956C28.7872 81.5918 28.7812 81.687 28.7743 81.7831C28.6702 83.173 28.5512 84.7761 28.4224 86.5328C28.2191 89.3206 27.9921 92.495 27.7631 95.8161H5L9.41466 82.5469C9.41466 82.5469 11.1972 81.5655 10.2897 79.9168C9.38218 78.2681 11.1678 79.5819 11.1844 77.2274C11.2011 74.8729 12.8012 72.368 12.8012 72.368L13.0639 68.803L13.2136 68.806L25.0596 69.0032L25.2757 69.0072L25.6396 72.0676C27.8487 74.6964 28.9757 78.0668 28.7921 81.4956Z" fill="#2F2E41"/>
<path d="M18.9883 42.5034L24.3901 42.2251L26.8991 46.1896C26.8991 46.1896 31.6198 46.9788 31.2926 52.5416C30.9654 58.1044 25.5489 62.9858 25.5489 62.9858L25.7804 62.192L25.3783 63.341L25.4299 63.9862L25.9785 64.6694L26.0349 65.376L25.5489 66.494C25.6121 66.5954 25.6457 66.7123 25.6457 66.8318C25.6458 66.9512 25.6124 67.0682 25.5493 67.1696C25.4863 67.271 25.3961 67.3527 25.2889 67.4054C25.1818 67.4581 25.062 67.4797 24.9432 67.4678L17.138 66.6856C16.9603 66.1968 16.8178 65.6119 16.1055 66.5856L15.3702 66.5143L12.3137 66.2182L12.1338 65.5628C12.0316 65.1905 12.0157 64.7997 12.0872 64.4202C12.1588 64.0408 12.316 63.6826 12.5468 63.3731C12.2814 62.5417 12.3509 61.6396 12.7406 60.8588L12.7553 60.8295L13.0798 60.5589C13.0798 60.5589 9.5288 55.224 13.6053 51.2058L15.2414 48.4244L17.0721 46.1909L18.9883 42.5034Z" fill="#3F3E54"/>
<path d="M20.3323 40.163C23.1614 40.163 25.4547 37.8696 25.4547 35.0406C25.4547 32.2116 23.1614 29.9182 20.3323 29.9182C17.5033 29.9182 15.21 32.2116 15.21 35.0406C15.21 37.8696 17.5033 40.163 20.3323 40.163Z" fill="#FFB6B6"/>
<path d="M24.223 42.4199C23.8059 42.0713 23.5156 41.5948 23.3971 41.0642C23.3024 41.7084 23.3271 42.3645 23.4701 42.9996C23.1927 43.2082 22.9237 43.4063 22.6693 43.5857C22.4766 43.0903 22.2124 42.6259 21.8851 42.2071C21.8538 42.8662 21.8246 43.5273 21.7954 44.1863C21.4704 44.4065 21.1279 44.5997 20.7714 44.764L20.9236 44.5826C22.0165 42.9725 19.1884 40.0089 20.2813 38.4009C20.5878 37.9504 19.203 34.3904 18.1477 34.2298C17.2092 34.088 17.2488 34.3591 16.3395 34.5572C16.2451 34.1634 16.0985 33.7839 15.9036 33.4289C15.9555 33.8245 15.9435 34.2259 15.8682 34.6177C15.5449 34.6302 15.2906 34.4242 14.9463 34.3716C12.7502 34.0358 12.9734 31.6604 13.5844 30.9075C14.1976 30.1566 16.2331 29.9314 17.1717 29.6874C17.2572 29.604 17.4511 29.6561 17.5366 29.5769C19.3352 27.9308 21.7408 27.6582 23.9055 28.3878C26.2141 29.1658 27.6534 30.6716 28.3921 32.993L28.604 34.8508C28.7941 35.4481 28.555 38.2273 28.3921 38.8327C27.7591 41.1856 26.4111 40.011 24.223 42.4199Z" fill="#2F2E41"/>
<path d="M31.6917 66.6884L31.4901 50.9824C31.4795 50.317 31.2078 49.6825 30.7336 49.2156C30.2593 48.7488 29.6206 48.4872 28.9551 48.4872H28.9551C28.6108 48.4872 28.2702 48.5573 27.9539 48.6932C27.6376 48.8292 27.3524 49.0281 27.1155 49.2779C26.8786 49.5277 26.6951 49.8232 26.5761 50.1462C26.4571 50.4693 26.4051 50.8131 26.4234 51.1569L27.133 67.4651L27.1465 77.3928C26.7282 77.5702 26.3747 77.872 26.134 78.2572C25.8933 78.6425 25.777 79.0926 25.8009 79.5462C25.8249 79.9999 25.9879 80.4352 26.2678 80.793C26.5478 81.1508 26.9311 81.4137 27.3657 81.546C27.8003 81.6784 28.2651 81.6738 28.6969 81.5328C29.1288 81.3918 29.5067 81.1212 29.7795 80.7579C30.0523 80.3946 30.2066 79.9562 30.2214 79.5021C30.2363 79.048 30.1111 78.6004 29.8627 78.22L31.6917 66.6884Z" fill="#FFB6B6"/>
<path d="M58.1289 87.0081C58.1289 87.0081 57.817 92.6175 57.6737 95.8166H46.9364C46.7154 92.9052 46.641 90.7663 46.641 90.7663L46.0535 95.8166H35.2002L34.5273 86.4632L37.779 78.4031C37.779 78.4031 55.4002 77.181 57.0348 78.7313C58.6682 80.2806 58.1289 87.0081 58.1289 87.0081Z" fill="#2F2E41"/>
<path d="M48.6346 39.8214C51.8738 39.8214 54.4996 37.1955 54.4996 33.9564C54.4996 30.7172 51.8738 28.0913 48.6346 28.0913C45.3954 28.0913 42.7695 30.7172 42.7695 33.9564C42.7695 37.1955 45.3954 39.8214 48.6346 39.8214Z" fill="#FFB6B6"/>
<path d="M55.4711 32.0507C54.8687 32.3253 54.4783 34.3148 54.0048 33.8523C53.5313 33.3898 53.5629 32.7879 52.9246 32.6172C52.409 32.4788 51.8543 32.637 51.384 32.8865C51.3001 32.9305 51.2187 32.9784 51.1393 33.026C51.087 32.991 51.0348 32.9581 50.9789 32.9277C50.5583 32.7026 50.0674 32.6474 49.6073 32.7734C49.9708 32.8952 50.2869 33.1282 50.5108 33.4394C50.3535 33.5449 50.1941 33.6506 50.031 33.7443C48.6688 34.5304 46.7305 32.8211 45.2967 32.179C46.1948 33.8643 45.7526 34.5623 44.9728 36.3053L44.9459 36.4045C44.9902 35.9677 43.6384 35.6421 43.7168 36.2571C43.7724 36.6937 44.1503 37.6641 44.3619 38.0496C42.8544 36.3066 41.8243 34.1735 42.0416 31.9731C42.089 31.5109 42.0747 31.0232 42.3131 30.622C42.5518 30.2229 43.0494 29.9428 43.4896 30.095C43.4523 29.3932 43.6058 28.6945 43.9339 28.0731C44.262 27.4517 44.7524 26.9307 45.3529 26.5657C45.9533 26.2007 46.6415 26.0052 47.3442 26.0001C48.0469 25.995 48.7379 26.1803 49.3437 26.5365C49.9066 26.8668 50.3765 27.3339 50.8924 27.7369C51.4083 28.1398 52.003 28.491 52.6572 28.5243C53.0722 28.5443 53.5238 28.443 53.8804 28.658C54.2934 28.9074 54.3641 29.4295 54.4261 29.932C54.0577 29.9683 53.7085 30.1136 53.4231 30.3494C53.8043 30.3105 54.188 30.3928 54.5197 30.5846C54.526 30.5874 54.532 30.5909 54.5376 30.5948C54.756 31.4252 54.7336 31.6093 55.4711 32.0507Z" fill="#2F2E41"/>
<path d="M35.2266 81.2407C40.2211 75.3944 38.5341 67.9584 36.5518 60.4522L36.929 49.3632C36.9475 48.8193 37.0966 48.2878 37.3638 47.8136C37.6309 47.3394 38.0083 46.9364 38.4639 46.6388L43.5627 43.3077L45.5473 40.4384L51.0177 40.9854L54.0512 44.1935L57.409 46.7569C58.2521 47.4005 58.8936 48.2718 59.2579 49.268C59.6222 50.2642 59.6941 51.3437 59.465 52.3794L56.2518 66.9111C56.2518 66.9111 57.5957 74.4445 56.7757 75.2765C55.9556 76.1085 53.8426 75.2769 55.5182 76.2109C57.5291 77.3317 59.3576 77.1249 58.3399 78.1425C57.3223 79.1601 58.6102 80.5749 58.6102 80.5749L35.2266 81.2407Z" fill="#F2754E"/>
<path d="M37.3615 89.7372L38.1942 83.805L34.8717 82.8566L34.2145 89.1597C33.9396 89.4119 33.7404 89.7357 33.6394 90.0948C33.5384 90.4539 33.5395 90.8341 33.6427 91.1925C33.7459 91.551 33.9471 91.8736 34.2236 92.124C34.5001 92.3745 34.8409 92.5428 35.2079 92.6102C35.5748 92.6775 35.9532 92.6411 36.3006 92.5052C36.648 92.3692 36.9506 92.1391 37.1744 91.8406C37.3981 91.5421 37.5342 91.1871 37.5672 90.8155C37.6003 90.4439 37.5291 90.0705 37.3615 89.7372Z" fill="#FFB6B6"/>
<path d="M43.6869 44.3771C43.6869 44.3771 34.2298 47.455 34.0043 49.7072C33.7788 51.9593 33.8536 53.338 32.8555 62.35L32.9081 86.6259C32.9081 86.6259 39.2485 87.9834 38.5982 86.532C37.948 85.0806 38.1749 84.3977 38.1749 84.3977C38.1749 84.3977 39.5343 83.8613 39.194 82.1571C38.8537 80.4529 40.5602 72.0075 40.5602 72.0075L41.6373 56.8611L43.6869 44.3771Z" fill="#F2754E"/>
<path d="M55.3484 89.4231L54.9053 83.4491L58.2827 82.7198L58.5265 89.0526C58.7844 89.3221 58.9619 89.6583 59.0393 90.0232C59.1166 90.3882 59.0906 90.7675 58.9642 91.1184C58.8378 91.4694 58.6159 91.7782 58.3237 92.01C58.0314 92.2418 57.6802 92.3875 57.3097 92.4307C56.9391 92.4739 56.5639 92.4129 56.2261 92.2546C55.8884 92.0962 55.6015 91.8467 55.3977 91.5343C55.1939 91.2218 55.0813 90.8586 55.0726 90.4857C55.0639 90.1127 55.1594 89.7448 55.3484 89.4231H55.3484Z" fill="#FFB6B6"/>
<path d="M52.001 43.7465C52.001 43.7465 61.2367 47.436 61.3145 49.6981C61.3923 51.9601 61.2276 53.3309 61.6345 62.3889L59.9952 86.6095C59.9952 86.6095 53.5796 87.5497 54.3233 86.1438C55.0671 84.738 54.8853 84.0418 54.8853 84.0418C54.8853 84.0418 53.5639 83.4176 54.0148 81.7393C54.4658 80.061 53.315 71.5222 53.315 71.5222L53.2302 56.3377L52.001 43.7465Z" fill="#F2754E"/>
</g>
</svg>
