<svg width="96" height="96" viewBox="0 0 96 96" fill="none" xmlns="http://www.w3.org/2000/svg">
<path fill-rule="evenodd" clip-rule="evenodd" d="M0 48.0001C0 21.6002 21.6 0.000366211 48 0.000366211C74.4 0.000366211 96 21.6002 96 48.0001C96 74.3999 74.4 95.9998 48 95.9998C21.6 95.9998 0 74.3999 0 48.0001Z" fill="#FDEDE8"/>
<mask id="mask0_3517_1353" style="mask-type:alpha" maskUnits="userSpaceOnUse" x="0" y="0" width="96" height="96">
<path fill-rule="evenodd" clip-rule="evenodd" d="M0 48.0001C0 21.6002 21.6 0.000366211 48 0.000366211C74.4 0.000366211 96 21.6002 96 48.0001C96 74.3999 74.4 95.9998 48 95.9998C21.6 95.9998 0 74.3999 0 48.0001Z" fill="white"/>
</mask>
<g mask="url(#mask0_3517_1353)">
<mask id="mask1_3517_1353" style="mask-type:alpha" maskUnits="userSpaceOnUse" x="0" y="0" width="96" height="50">
<path fill-rule="evenodd" clip-rule="evenodd" d="M49.2908 0.0100418H49.7661C73.2631 0.613461 95.0319 20.2824 96 45.5484L95.888 49.5997H0.00695785V49.1103C-0.457094 20.6498 22.355 -0.528443 49.2908 0.0100418Z" fill="white"/>
</mask>
<g mask="url(#mask1_3517_1353)">
<path fill-rule="evenodd" clip-rule="evenodd" d="M129.95 48.1716L129.98 48.0206L-7.2578 48.0365C-7.2578 48.0365 -7.36889 47.8014 -7.39428 47.757C-7.40381 47.7411 -7.41492 47.7236 -7.42761 47.7014C-7.44348 47.6712 -7.4657 47.6346 -7.48951 47.5933C-7.49744 47.579 -7.50538 47.5648 -7.5149 47.5473C-7.54664 47.4917 -7.58156 47.4281 -7.62124 47.3551C-7.66885 47.2661 -7.72281 47.166 -7.78312 47.0532V47.0517C-8.00531 46.6339 -8.3005 46.0525 -8.63538 45.3297C-8.74647 45.093 -8.85916 44.8404 -8.9766 44.572C-9.02262 44.4656 -9.07182 44.3576 -9.11944 44.2464C-9.16387 44.1399 -9.21149 44.0303 -9.25751 43.9191C-9.2591 43.9144 -9.26069 43.9112 -9.26227 43.908C-9.29401 43.8317 -9.32734 43.7539 -9.35909 43.6745C-9.394 43.5935 -9.42574 43.5109 -9.46066 43.4283C-9.63365 43.001 -9.8114 42.5466 -9.98598 42.0685C-9.99074 42.0558 -9.9955 42.0431 -10.0003 42.0304C-10.1161 41.7174 -10.2304 41.3934 -10.3431 41.0598C-10.4081 40.8771 -10.47 40.6913 -10.5303 40.5006C-10.5351 40.4911 -10.5383 40.4784 -10.5415 40.4657C-10.5684 40.3831 -10.597 40.2989 -10.6224 40.2131C-10.6462 40.1416 -10.6684 40.0702 -10.6906 39.9987C-10.7383 39.8509 -10.7827 39.7016 -10.8287 39.5507C-10.8874 39.3553 -10.9446 39.1584 -11.0033 38.9598C-11.0795 38.6882 -11.1557 38.4133 -11.2287 38.1338C-11.2525 38.0496 -11.2731 37.9654 -11.2953 37.8796C-11.3604 37.627 -11.4239 37.3713 -11.4858 37.1124C-11.5064 37.0282 -11.5254 36.9456 -11.5445 36.8614C-11.5572 36.809 -11.5683 36.7565 -11.581 36.7057C-11.673 36.2943 -11.7619 35.8765 -11.8444 35.4508C-11.9349 34.9822 -12.019 34.504 -12.0952 34.0179C-12.1635 33.5684 -12.2269 33.1125 -12.2809 32.6502C-12.3317 32.2134 -12.3761 31.7718 -12.411 31.3254C-12.4967 30.2802 -12.5332 29.2079 -12.519 28.115C-12.4888 26.2104 -12.2904 24.247 -11.8635 22.2598C-11.8508 22.1867 -11.8333 22.1152 -11.8175 22.0422C-11.7127 21.5688 -11.5953 21.0954 -11.462 20.6205C-11.362 20.2599 -11.2541 19.8961 -11.135 19.5339C-11.0509 19.2718 -10.962 19.0097 -10.87 18.746C-10.6573 18.1503 -10.4208 17.5562 -10.1606 16.9605C-10.0891 16.7953 -10.0145 16.6317 -9.93996 16.4665C-8.52587 13.3991 -6.44204 10.3603 -3.47738 7.48667C-3.42183 7.43266 -3.36628 7.37865 -3.31232 7.32623C-1.83951 5.91245 -0.385751 4.68136 1.04738 3.61388C1.09975 3.57417 1.15371 3.53446 1.20609 3.49633C16.9499 -8.11567 30.2591 -0.235075 37.3216 -0.671915C38.7119 -0.757696 39.9308 -1.31208 41.1306 -2.19212C43.3287 -3.80287 45.4554 -6.50492 48.4232 -9.40554C52.8718 -13.7501 59.2058 -18.5426 70.4963 -20.7824C84.4673 -23.5544 103.66 -22.7776 111.962 -14.4475C116.985 -9.4103 118.023 -1.60755 111.51 9.84243C111.114 10.5398 110.689 11.2483 110.237 11.9726C109.857 12.581 109.526 13.1608 109.24 13.7152C108.524 15.1067 108.099 16.3331 107.92 17.426C107.491 20.0534 108.478 21.9135 110.246 23.4448C110.727 23.8578 111.262 24.247 111.841 24.6219L111.952 24.695C114.02 26.0087 116.631 27.1365 119.235 28.4582C120.673 29.1905 122.11 29.9784 123.449 30.8918C124.692 31.74 125.855 32.6947 126.861 33.8067C127.518 34.531 128.109 35.3253 128.61 36.2006C128.639 36.2498 128.666 36.2975 128.694 36.3483C129.342 37.5111 129.837 38.8184 130.129 40.2989C130.145 40.3752 130.159 40.4498 130.174 40.5261C130.564 42.6785 130.537 45.1947 129.95 48.1716Z" fill="#EF5222" fill-opacity="0.04"/>
<path fill-rule="evenodd" clip-rule="evenodd" d="M111.509 9.84262L33.0362 23.2655L27.4053 16.4747L111.962 -14.4489C116.985 -9.4101 118.023 -1.60735 111.509 9.84262Z" fill="white" fill-opacity="0.271088"/>
<path fill-rule="evenodd" clip-rule="evenodd" d="M48 41.1604H57.6V-0.439331H48V41.1604Z" fill="#FBD5CA"/>
<mask id="mask2_3517_1353" style="mask-type:alpha" maskUnits="userSpaceOnUse" x="48" y="-1" width="10" height="43">
<path fill-rule="evenodd" clip-rule="evenodd" d="M48 41.1604H57.6V-0.439331H48V41.1604Z" fill="white"/>
</mask>
<g mask="url(#mask2_3517_1353)">
<path fill-rule="evenodd" clip-rule="evenodd" d="M51.2002 6.40006H57.6002V3.20007H51.2002V6.40006Z" fill="#FBDDD5"/>
<path fill-rule="evenodd" clip-rule="evenodd" d="M51.2002 12.8H57.6002V9.59998H51.2002V12.8Z" fill="#FBDDD5"/>
<path fill-rule="evenodd" clip-rule="evenodd" d="M51.2002 19.2H57.6002V16H51.2002V19.2Z" fill="#FBDDD5"/>
<path fill-rule="evenodd" clip-rule="evenodd" d="M51.2002 25.5999H57.6002V22.3999H51.2002V25.5999Z" fill="#FBDDD5"/>
<path fill-rule="evenodd" clip-rule="evenodd" d="M51.2002 31.9999H57.6002V28.7999H51.2002V31.9999Z" fill="#FBDDD5"/>
<path fill-rule="evenodd" clip-rule="evenodd" d="M50.8428 38.1836H60.1796V35.5435H50.8428V38.1836Z" fill="#99B4EF"/>
</g>
<path fill-rule="evenodd" clip-rule="evenodd" d="M43.6885 45.4955H47.599V39.7594H43.6885V45.4955Z" fill="#CBD9F8"/>
<path fill-rule="evenodd" clip-rule="evenodd" d="M44.883 31.9343V47.8591H3.45866L3.17775 47.8576L-7.39377 47.7575C-7.4033 47.7416 -7.41441 47.7225 -7.4271 47.7019C-7.44456 47.6717 -7.46519 47.6352 -7.489 47.5939C-7.49693 47.5796 -7.50646 47.5637 -7.51598 47.5478C-7.54613 47.4906 -7.58264 47.4271 -7.62073 47.3556C-7.66834 47.2666 -7.7223 47.165 -7.7842 47.0538V47.0522C-8.0048 46.6328 -8.30158 46.0514 -8.63646 45.3302C-8.74596 45.092 -8.85865 44.841 -8.97768 44.5725C-9.0237 44.4661 -9.07131 44.3581 -9.11893 44.2469C-9.16495 44.1404 -9.21098 44.0308 -9.257 43.9181C-9.25859 43.9149 -9.26018 43.9117 -9.26176 43.9085C-9.29509 43.8307 -9.32683 43.7529 -9.36016 43.675C-9.39349 43.594 -9.42682 43.5114 -9.46015 43.4288C-9.63473 43.0015 -9.81089 42.5472 -9.98547 42.0674C-9.99023 42.0563 -9.99499 42.042 -9.99975 42.0309V42.0293C-10.1156 41.7164 -10.2315 41.3939 -10.3442 41.0603C-10.4076 40.8761 -10.4695 40.6902 -10.5298 40.5012C-10.5346 40.4901 -10.5378 40.4789 -10.5425 40.4662C-10.5679 40.382 -10.5965 40.2994 -10.6235 40.2137C-10.6457 40.1422 -10.6679 40.0707 -10.6917 39.9992C-10.7377 39.8515 -10.7822 39.7022 -10.8298 39.5497C-10.8885 39.3559 -10.9457 39.1589 -11.0028 38.9587C-11.0806 38.6887 -11.1567 38.4139 -11.2282 38.1327C-11.252 38.0501 -11.2742 37.9643 -11.2948 37.8801C-11.3599 37.6276 -11.425 37.3702 -11.4868 37.1113C-11.5059 37.0287 -11.5249 36.9445 -11.5456 36.8619C-11.5583 36.8095 -11.5678 36.7571 -11.5805 36.7062C-11.6741 36.2948 -11.7614 35.877 -11.8439 35.4513C-11.936 34.9811 -12.0201 34.503 -12.0947 34.0185C-12.1629 33.5689 -12.2264 33.113 -12.282 32.6508C-12.3328 32.2139 -12.3756 31.7723 -12.4121 31.3259C-12.4962 30.2791 -12.5343 29.2069 -12.5184 28.114C-12.4883 26.2109 -12.2899 24.2476 -11.8646 22.2603C-11.8503 22.1873 -11.8328 22.1142 -11.8185 22.0427C-11.7122 21.5693 -11.5948 21.096 -11.4615 20.621C-11.3615 20.2588 -11.2535 19.8966 -11.1361 19.5344C-11.0504 19.2723 -10.9631 19.0087 -10.8695 18.7465C-10.6568 18.1509 -10.4219 17.5552 -10.1616 16.9611H-9.93945V16.467C-8.52536 13.3996 -6.44312 10.3608 -3.47846 7.48561C-3.42291 7.43319 -3.36577 7.37918 -3.31181 7.32517H-3.13882V13.4171H2.22074V3.4921H8.13577V9.93509H9.4832V2.24194H15.3982V16.6656H22.8781V25.0768H25.673V27.1958H32.0911V23.547H35.7779V13.6331H40.3296V31.9343H44.883Z" fill="#FBDDD5"/>
<path fill-rule="evenodd" clip-rule="evenodd" d="M9.4834 4.68507H15.4016V3.2157H9.4834V4.68507Z" fill="#99B4EF"/>
<path fill-rule="evenodd" clip-rule="evenodd" d="M9.4834 7.44593H15.4016V5.97656H9.4834V7.44593Z" fill="#99B4EF"/>
<path fill-rule="evenodd" clip-rule="evenodd" d="M9.4834 9.93031H15.4016V8.46094H9.4834V9.93031Z" fill="#99B4EF"/>
<path fill-rule="evenodd" clip-rule="evenodd" d="M2.22266 9.93031H8.14087V8.46094H2.22266V9.93031Z" fill="#99B4EF"/>
<path fill-rule="evenodd" clip-rule="evenodd" d="M2.22266 7.44593H8.14087V5.97656H2.22266V7.44593Z" fill="#99B4EF"/>
<path fill-rule="evenodd" clip-rule="evenodd" d="M2.22266 4.9662H8.14087V3.49682H2.22266V4.9662Z" fill="#99B4EF"/>
<path fill-rule="evenodd" clip-rule="evenodd" d="M35.7989 23.5471H34.1055V13.6332H35.7354H35.7989H40.3284V15.9016H35.7989V17.0072H40.3284V19.2756H35.7989V20.3812H40.3284V22.6496H35.7989V23.5471ZM40.3284 26.1856H35.7354V23.9172H40.3284V26.1856ZM35.7354 29.612H40.3284V27.3436H35.7354V29.612ZM40.3284 33.0384H35.7354V30.77H40.3284V33.0384ZM35.7354 36.6237H40.3284V34.3553H35.7354V36.6237Z" fill="#FBD5CA"/>
<path fill-rule="evenodd" clip-rule="evenodd" d="M28.6855 27.1958H32.0914V23.547H28.6855V27.1958Z" fill="#FBD5CA"/>
<path fill-rule="evenodd" clip-rule="evenodd" d="M3.2002 48.0731L30.4002 48.0842V35.1998H3.23915L3.2002 48.0731Z" fill="#FBD5CA"/>
<path fill-rule="evenodd" clip-rule="evenodd" d="M23.0684 47.7574H46.3063V41.4526H23.0684V47.7574Z" fill="#FBD5CA"/>
<path fill-rule="evenodd" clip-rule="evenodd" d="M3.58504 37.1118V48.0201L-7.25787 48.036C-7.26739 48.0201 -7.41499 47.7231 -7.4261 47.7024C-7.44355 47.6706 -7.46577 47.6357 -7.48958 47.5944C-7.49593 47.5785 -7.50545 47.5642 -7.51497 47.5483C-7.54671 47.4911 -7.58163 47.4276 -7.62131 47.3545C-7.66892 47.2672 -7.72288 47.1655 -7.78319 47.0527C-8.00538 46.6333 -8.30058 46.0519 -8.63545 45.3292C-8.74654 45.0925 -8.85923 44.8399 -8.97667 44.573C-9.0227 44.4666 -9.0719 44.3586 -9.11951 44.2474C-9.16395 44.1394 -9.21156 44.0298 -9.25758 43.9186C-9.25917 43.9154 -9.26076 43.9106 -9.26234 43.9075C-9.29409 43.8312 -9.32741 43.7534 -9.35916 43.6739C-9.39407 43.5945 -9.42581 43.5119 -9.46073 43.4293C-9.63372 43.002 -9.80989 42.5477 -9.98605 42.068C-9.99081 42.0553 -9.99557 42.0426 -10.0003 42.0314V42.0298C-10.1162 41.7169 -10.2305 41.3928 -10.3431 41.0593C-10.4066 40.8766 -10.4685 40.6907 -10.5304 40.5017C-10.5336 40.4906 -10.5368 40.4795 -10.5415 40.4667C-10.5685 40.3826 -10.5971 40.2984 -10.6225 40.2142C-10.6463 40.1427 -10.6669 40.0712 -10.6907 39.9981C-10.7367 39.852 -10.7828 39.7011 -10.8288 39.5502C-10.8875 39.3564 -10.9446 39.1594 -11.0018 38.9593C-11.0795 38.6892 -11.1557 38.4128 -11.2287 38.1332C-11.2525 38.049 -11.2732 37.9648 -11.2954 37.8807C-11.3605 37.6281 -11.4239 37.3707 -11.4858 37.1118H3.58504Z" fill="#FBD5CA"/>
<path fill-rule="evenodd" clip-rule="evenodd" d="M6.40039 39.9998H11.2004V36.7998H6.40039V39.9998Z" fill="#FBDDD5"/>
<path fill-rule="evenodd" clip-rule="evenodd" d="M14.4004 39.9998H19.2004V36.7998H14.4004V39.9998Z" fill="#FBDDD5"/>
<path fill-rule="evenodd" clip-rule="evenodd" d="M22.4004 39.9998H27.2004V36.7998H22.4004V39.9998Z" fill="#FBDDD5"/>
<path fill-rule="evenodd" clip-rule="evenodd" d="M39.2918 13.6331H39.4124V12.6451H39.2918V13.6331Z" fill="#CBD9F8"/>
<path fill-rule="evenodd" clip-rule="evenodd" d="M34.953 13.6331H35.0736V12.6451H34.953V13.6331Z" fill="#CBD9F8"/>
<path fill-rule="evenodd" clip-rule="evenodd" d="M41.5996 48.0603H57.5996V36.8604H41.5996V48.0603Z" fill="#FBDDD5"/>
<path fill-rule="evenodd" clip-rule="evenodd" d="M41.5996 38.3998H57.5996V35.1998H41.5996V38.3998Z" fill="#FBD5CA"/>
<path fill-rule="evenodd" clip-rule="evenodd" d="M67.2002 41.1604H76.8002V-0.439331H67.2002V41.1604Z" fill="#FBD5CA"/>
<mask id="mask3_3517_1353" style="mask-type:alpha" maskUnits="userSpaceOnUse" x="67" y="-1" width="10" height="43">
<path fill-rule="evenodd" clip-rule="evenodd" d="M67.2002 41.1604H76.8002V-0.439331H67.2002V41.1604Z" fill="white"/>
</mask>
<g mask="url(#mask3_3517_1353)">
<path fill-rule="evenodd" clip-rule="evenodd" d="M70.4004 6.40006H76.8004V3.20007H70.4004V6.40006Z" fill="#FBDDD5"/>
<path fill-rule="evenodd" clip-rule="evenodd" d="M70.4004 12.8H76.8004V9.59998H70.4004V12.8Z" fill="#FBDDD5"/>
<path fill-rule="evenodd" clip-rule="evenodd" d="M70.4004 19.2H76.8004V16H70.4004V19.2Z" fill="#FBDDD5"/>
<path fill-rule="evenodd" clip-rule="evenodd" d="M70.4004 25.5999H76.8004V22.3999H70.4004V25.5999Z" fill="#FBDDD5"/>
<path fill-rule="evenodd" clip-rule="evenodd" d="M70.4004 31.9999H76.8004V28.7999H70.4004V31.9999Z" fill="#FBDDD5"/>
<path fill-rule="evenodd" clip-rule="evenodd" d="M70.043 38.1836H79.3797V35.5435H70.043V38.1836Z" fill="#99B4EF"/>
</g>
<path fill-rule="evenodd" clip-rule="evenodd" d="M60.7998 48.0603H76.7998V36.8604H60.7998V48.0603Z" fill="#FBDDD5"/>
<path fill-rule="evenodd" clip-rule="evenodd" d="M60.7998 38.3998H76.7998V35.1998H60.7998V38.3998Z" fill="#FBD5CA"/>
<path fill-rule="evenodd" clip-rule="evenodd" d="M80 48.0603H96V36.8604H80V48.0603Z" fill="#FBDDD5"/>
<path fill-rule="evenodd" clip-rule="evenodd" d="M80 38.3998H96V35.1998H80V38.3998Z" fill="#FBD5CA"/>
<path fill-rule="evenodd" clip-rule="evenodd" d="M15.4018 12.7093L15.3984 16.6656H22.8783V25.1141H24.0077L34.1055 14.8062V13.6331H35.3644L48.7415 0.202295V0C48.7415 0 39.8541 0 33.1141 2.24193C26.3742 4.48385 20.8961 8.07317 19.0334 9.53024C17.1707 10.9873 15.4018 12.7093 15.4018 12.7093Z" fill="#FDEDE8"/>
</g>
</g>
<path fill-rule="evenodd" clip-rule="evenodd" d="M26.458 68.3496C26.458 68.3496 26.6368 71.9088 30.5832 71.6915C34.531 71.4728 34.7754 68.3496 34.7754 68.3496H26.458Z" fill="#0C0C0C"/>
<path fill-rule="evenodd" clip-rule="evenodd" d="M34.7753 66.6978C34.7753 68.9244 33.9109 70.7291 32.8458 70.7291C31.7794 70.7291 30.915 68.9244 30.915 66.6978C30.915 64.4724 31.7794 62.6677 32.8458 62.6677C33.9109 62.6677 34.7753 64.4724 34.7753 66.6978Z" fill="#685D55"/>
<path fill-rule="evenodd" clip-rule="evenodd" d="M45.252 63.7313L49.1765 68.9653L62.261 67.5478L77.6339 64.4954L80.6863 64.058L82.5399 53.0472L79.1594 51.6296L63.8959 52.2844L58.9899 55.3368L51.4662 60.3521L45.252 63.7313Z" fill="#0C0C0C"/>
<path fill-rule="evenodd" clip-rule="evenodd" d="M73.3809 65.1488C73.3809 65.1488 73.9263 67.2197 75.0158 67.5477C76.1066 67.8745 79.159 67.5477 79.159 67.5477L78.5043 62.8591H73.3809V65.1488Z" fill="#0C0C0C"/>
<path fill-rule="evenodd" clip-rule="evenodd" d="M52.3089 69.2861C52.3089 69.2861 52.1211 72.2986 56.3723 72.2356C59.4788 72.1906 58.8048 72.2137 58.8048 72.2137C58.8048 72.2137 56.8123 72.1533 56.9216 67.2472C57.0297 62.3412 52.3089 69.2861 52.3089 69.2861Z" fill="#0C0C0C"/>
<path fill-rule="evenodd" clip-rule="evenodd" d="M56.7217 68.6473L57.5707 68.4196C57.5707 68.4196 57.4536 59.5736 59.1361 57.6223C61.3872 55.0085 63.0774 68.8788 59.4796 71.9312C59.4796 71.9312 57.797 73.5597 56.7217 68.6473Z" fill="#685D55"/>
<mask id="mask4_3517_1353" style="mask-type:alpha" maskUnits="userSpaceOnUse" x="13" y="24" width="74" height="46">
<path fill-rule="evenodd" clip-rule="evenodd" d="M13.7881 24H86.3993V69.2996H13.7881V24Z" fill="white"/>
</mask>
<g mask="url(#mask4_3517_1353)">
<path fill-rule="evenodd" clip-rule="evenodd" d="M14.2868 60.2429C14.2868 60.2429 12.7599 67.0025 15.0496 67.7653C17.3392 68.5281 45.3592 68.3107 49.1757 69.0735C52.9922 69.8375 57.5703 68.42 57.5703 68.42C57.5703 68.42 57.6796 55.6636 60.8414 56.3171C64.0032 56.9718 62.2602 67.4385 62.2602 67.4385L77.633 64.4955C77.633 64.4955 78.7239 53.4833 79.9214 55.2275C81.1216 56.9718 80.6855 64.0581 80.6855 64.0581L83.8473 63.2953L86.3543 61.115C86.3543 61.115 86.7917 37.6732 84.9381 36.4743C83.0845 35.2742 71.9629 32.6578 71.9629 32.6578C71.9629 32.6578 70.4361 29.7148 64.7672 28.2972C59.0984 26.8797 51.2467 23.9353 48.7397 24.8087C48.7397 24.8087 47.1047 23.0632 45.2511 24.6994L26.1698 25.1355C26.1698 25.1355 26.2792 23.5006 24.7536 25.3529C24.7536 25.3529 19.6289 25.0261 17.994 30.3682C16.3578 35.7116 13.196 55.2275 14.2868 60.2429Z" fill="#EF5222"/>
</g>
<path fill-rule="evenodd" clip-rule="evenodd" d="M16.793 38.0552C16.793 38.0552 18.5926 36.6377 31.1317 36.8551C43.6707 37.0737 47.922 36.747 48.5768 37.4005V52.2291C48.5768 52.2291 43.1253 52.0117 42.2532 54.1908C41.3798 56.3723 40.509 59.7515 38.7634 59.8608C37.0204 59.9702 21.4289 59.8608 21.4289 59.8608C21.4289 59.8608 20.0114 59.5341 19.574 58.1166C19.138 56.6991 19.466 52.7745 14.7773 52.3385C14.7773 52.3385 15.2121 43.5066 16.793 38.0552Z" fill="#0C0C0C"/>
<path fill-rule="evenodd" clip-rule="evenodd" d="M50.0488 32.0042C50.0488 32.0042 50.1569 29.9333 54.4095 30.9134C58.6608 31.8949 85.0471 38.001 85.0471 38.001L85.4665 42.7836C85.6067 43.5643 85.5102 44.3644 85.1989 45.0835C84.9854 45.5761 84.8182 46.0868 84.7191 46.6142L55.9363 44.6513L53.428 53.5925L50.0488 55.3367V32.0042Z" fill="#0C0C0C"/>
<path fill-rule="evenodd" clip-rule="evenodd" d="M78.9525 56.6182C78.9525 56.6182 79.9223 56.0998 80.3597 58.9349C80.7958 61.7686 80.4677 67.3294 79.0502 67.5481C77.634 67.7654 77.7935 63.0472 77.7935 63.0472C77.7935 63.0472 78.4083 57.5367 78.9525 56.6182Z" fill="#685D55"/>
<path fill-rule="evenodd" clip-rule="evenodd" d="M60.8406 64.6729C60.6979 67.4989 59.9711 69.7602 59.2199 69.7217C58.4674 69.6844 57.9747 67.3613 58.1188 64.5352C58.2616 61.7079 58.9883 59.4479 59.7395 59.4864C60.492 59.525 60.9834 61.8468 60.8406 64.6729Z" fill="white"/>
<path fill-rule="evenodd" clip-rule="evenodd" d="M80.0301 62.1208C79.9337 64.0426 79.4397 65.5785 78.9291 65.5527C78.4171 65.527 78.0814 63.9487 78.1804 62.0269C78.2782 60.1065 78.7708 58.5693 79.2815 58.595C79.7922 58.6208 80.1279 60.1991 80.0301 62.1208Z" fill="white"/>
<path fill-rule="evenodd" clip-rule="evenodd" d="M17.8848 33.0946C17.8848 33.0946 13.1962 31.8945 11.9973 33.8574C10.7972 35.8203 10.9065 36.9099 10.9065 36.9099C10.9065 36.9099 10.1437 37.2379 10.0344 38.3274C9.92634 39.4182 9.59961 41.7078 9.59961 41.7078C9.59961 41.7078 9.70766 43.016 10.9065 43.016C12.1067 43.016 12.216 42.5799 12.324 41.9252C12.4334 41.2718 13.1409 37.1826 13.1409 37.1826C13.1409 37.1826 13.0341 36.7465 12.4887 36.7465C12.4887 36.7465 12.8154 34.7836 13.5782 34.8929C14.341 35.0022 14.5597 35.329 15.3225 35.4383C16.0865 35.5476 17.3934 35.657 17.3934 35.657C17.3934 35.657 17.8308 33.0406 17.8848 33.0946Z" fill="#DF5634"/>
<path fill-rule="evenodd" clip-rule="evenodd" d="M55.8271 44.6514L84.7193 46.6143C84.7193 46.6143 84.9508 45.8001 85.0537 45.4438C85.0781 45.355 85.1244 45.2354 85.1772 45.1003C85.3354 44.6939 85.5631 44.1459 85.5296 43.8488C85.5296 43.8488 85.4833 44.5434 85.2647 45.1968C85.0473 45.8515 84.8286 46.8317 84.8286 46.8317L55.8362 45.3409L55.8271 44.6514Z" fill="#F3F8F6"/>
<path fill-rule="evenodd" clip-rule="evenodd" d="M14.7227 51.9567C14.7227 51.9567 15.5948 41.1619 16.7936 38.0001C16.7936 38.0001 19.7753 36.8463 25.3708 36.8785C25.3708 36.8785 42.1869 36.8514 45.7899 36.9904C45.7899 36.9904 48.1941 37.02 48.5208 37.3467V52.2834C48.5208 52.2834 24.7534 51.7393 14.7227 51.9567Z" fill="#353438"/>
<path fill-rule="evenodd" clip-rule="evenodd" d="M41.8711 63.9499L42.9619 60.2427C42.9619 60.2427 43.4481 58.6078 45.2516 57.9531C46.3887 57.5414 47.0447 57.2893 47.3856 57.0681C47.5464 56.9639 47.7586 57.0771 47.7586 57.2687V61.6602C47.7586 61.6602 46.9945 63.9499 45.5783 63.9499H41.8711Z" fill="white"/>
<path fill-rule="evenodd" clip-rule="evenodd" d="M14.0684 56.9719L15.8127 58.2801C15.8127 58.2801 16.5767 59.0429 16.7941 60.8965C17.0128 62.7501 17.4489 63.7315 17.4489 63.7315H14.9418C14.9418 63.7315 13.6323 63.5128 14.0684 56.9719Z" fill="white"/>
<path d="M14.7773 52.2291C14.7773 52.2291 15.4321 37.4005 18.1578 32.9305L31.4597 32.2771L29.8466 52.2832L48.5768 52.3372C48.5768 52.3372 49.1222 34.1307 48.2488 32.6038C47.7844 31.7896 31.3503 32.2771 31.3503 32.2771" stroke="#0C0C0C" stroke-width="0.411"/>
<path fill-rule="evenodd" clip-rule="evenodd" d="M54.2186 32.9765C54.2186 32.9765 55.5268 40.1722 55.0908 43.2246C55.0908 43.2246 55.2001 43.9887 55.6362 44.2061C56.0709 44.4247 62.6132 44.8608 62.6132 44.8608C62.6132 44.8608 62.4498 38.5913 61.633 33.63L55.2001 32.3218C55.2001 32.3218 54.1093 32.1044 54.2186 32.9765Z" fill="#353438"/>
<path fill-rule="evenodd" clip-rule="evenodd" d="M62.0127 33.6851L68.6643 35.1026C68.6643 35.1026 69.5364 42.4076 69.4283 45.3507L62.9954 44.9146C62.9954 44.9146 62.5581 36.1934 62.0127 33.6851Z" fill="#353438"/>
<path fill-rule="evenodd" clip-rule="evenodd" d="M68.9912 35.1025L74.7771 36.4326C74.7771 36.4326 75.5077 43.0391 75.4164 45.7867L69.7218 45.3879C69.7218 45.3879 69.4479 37.4423 68.9912 35.1025Z" fill="#353438"/>
<path fill-rule="evenodd" clip-rule="evenodd" d="M74.9883 36.4109L79.7927 37.5326C79.7927 37.5326 80.7484 43.4277 80.4333 46.2229L75.7048 45.8653C75.7048 45.8653 75.3677 38.5603 74.9883 36.4109Z" fill="#353438"/>
<path fill-rule="evenodd" clip-rule="evenodd" d="M80.0781 37.6155L84.4593 38.5249C84.4593 38.5249 85.2504 41.6931 85.3109 44.3403C85.3109 44.3403 84.4902 46.4692 83.6978 46.5309C82.908 46.5914 80.6557 46.3483 80.6557 46.3483C80.6557 46.3483 80.7174 40.0505 80.0781 37.6155Z" fill="#353438"/>
<path fill-rule="evenodd" clip-rule="evenodd" d="M42.9619 60.243L47.7586 58.5708V56.9719C47.7586 56.9719 43.5691 57.7836 42.9619 60.243Z" fill="#FF6700"/>
<path fill-rule="evenodd" clip-rule="evenodd" d="M14.0682 56.9719L15.8125 58.2801C15.8125 58.2801 16.3991 59.0197 16.5714 59.7851L13.9795 58.6055L14.0682 56.9719Z" fill="#FF6700"/>
<path fill-rule="evenodd" clip-rule="evenodd" d="M14.0723 61.3843C14.1765 62.1226 14.2652 62.942 14.6961 63.5286C14.8119 63.6726 14.9637 63.6611 15.1708 63.6533L15.7432 63.6405L16.8867 63.6173L21.4673 63.5762L30.6285 63.58L39.7872 63.7061L44.3665 63.8116C45.1318 63.8116 45.9216 64.0097 46.5313 63.517C47.1514 63.0899 47.5231 62.3786 47.7585 61.6595C47.5617 62.3889 47.235 63.1324 46.6072 63.6212C46.296 63.8566 45.9242 64.0392 45.5087 64.0457L44.3639 64.0701L39.7833 64.1126L30.6234 64.1074L21.4661 63.9801L16.8867 63.8746L15.7419 63.8334L15.1695 63.8141C15.0036 63.8193 14.727 63.8038 14.6009 63.6148C14.1597 62.9317 14.143 62.1368 14.0723 61.3843Z" fill="#0C0C0C"/>
<path d="M50.0496 55.3363C50.0496 55.3363 49.8849 67.0379 49.1762 69.0742" stroke="#0C0C0C" stroke-width="0.082"/>
<path d="M71.9627 32.6581C60.5286 28.7709 49.6849 27.9052 49.6115 29.9736C49.5395 32.042 48.248 32.6041 48.248 32.6041" stroke="#0C0C0C" stroke-width="0.082"/>
<path d="M54.6921 49.0869C54.6921 49.0869 55.0111 65.6984 53.6875 69.0737" stroke="#0C0C0C" stroke-width="0.082"/>
<path d="M54.7217 54.6806L85.9523 54.1918C85.9523 54.1918 86.1491 56.475 86.3549 61.1147" stroke="#0C0C0C" stroke-width="0.082"/>
<path d="M24.3691 52.3377L28.5458 47.3777" stroke="#0C0C0C" stroke-width="0.411"/>
<path d="M28.8722 42.9932L28.1544 50.7857" stroke="#0C0C0C" stroke-width="0.411"/>
<path d="M31.7622 43.0159L31.2155 50.7865" stroke="#0C0C0C" stroke-width="0.411"/>
<path d="M36.2966 52.2839L31.4883 46.9006" stroke="#0C0C0C" stroke-width="0.411"/>
<path fill-rule="evenodd" clip-rule="evenodd" d="M51.6846 32.8761C51.6846 32.8761 53.5369 33.2028 53.973 33.2028C54.409 33.2028 54.8464 36.3646 54.737 37.1287V37.4554H55.3918C55.3918 37.4554 55.8278 37.7821 55.8278 38.3275V43.0161C55.8278 43.0161 55.4998 43.6709 54.9544 43.6709C54.409 43.6709 53.2115 43.4522 53.2115 43.4522C53.2115 43.4522 52.1207 43.3428 52.0113 41.9253C51.902 40.5091 51.848 37.4014 52.8294 37.5107H53.1561L53.0468 35.5478H52.1747C52.1747 35.5478 51.1932 35.9838 51.6846 32.8761Z" fill="#DF5634"/>
<g style="mix-blend-mode:overlay" opacity="0.350813">
<path fill-rule="evenodd" clip-rule="evenodd" d="M59.9777 57.4002C59.9777 57.4002 59.0592 58.5798 59.7384 59.4866C59.7384 59.4866 57.4269 63.4189 58.991 68.5886C58.991 68.5886 59.5352 69.4389 60.1809 68.3506C60.1809 68.3506 60.069 69.6871 59.1956 69.9148C59.1956 69.9148 58.209 69.8119 57.733 68.9629C57.2571 68.1127 56.9497 69.507 57.0538 69.9148L52.36 69.8466L52.3086 69.2858C52.3086 69.2858 55.8125 69.0337 57.5709 68.4201C57.5709 68.4201 57.7163 60.2919 59.1364 57.6215C59.1364 57.6215 59.6033 57.0606 59.9777 57.4002Z" fill="#0C0C0C"/>
</g>
<g style="mix-blend-mode:overlay" opacity="0.350813">
<path fill-rule="evenodd" clip-rule="evenodd" d="M80.0072 57.5704C80.0072 57.5704 79.4065 57.3067 79.2817 58.5943C79.2817 58.5943 78.2385 61.8886 78.7145 63.8618C79.1904 65.8337 79.7345 64.4059 79.7345 64.4059C79.7345 64.4059 79.2252 66.0717 78.8161 66.3096C78.4083 66.5476 78.8161 67.5677 78.8161 67.5677L74.4979 65.9353L74.0889 65.1545L77.6327 64.4947C77.6327 64.4947 78.2051 57.7402 79.292 56.1079C80.3803 54.4755 80.0072 57.5704 80.0072 57.5704Z" fill="#0C0C0C"/>
</g>
<g style="mix-blend-mode:overlay" opacity="0.350813">
<path fill-rule="evenodd" clip-rule="evenodd" d="M48.7402 24.8083C48.7402 24.8083 49.8568 27.9161 49.6124 29.9742C49.6124 29.9742 50.2349 28.9207 51.4081 28.9207C52.5825 28.9207 63.8352 29.6912 71.7924 32.4979C71.7924 32.4979 61.9212 27.7489 55.1024 27.1996C52.8089 27.0144 50.5964 26.2452 48.7763 24.8366L48.7402 24.8083Z" fill="#0C0C0C"/>
</g>
<path fill-rule="evenodd" clip-rule="evenodd" d="M51.4586 34.4293C51.4586 34.4293 52.377 34.8371 53.0395 34.7355L53.0459 35.5471C53.0459 35.5471 51.3068 36.6225 51.4586 34.4293Z" fill="#0C0C0C"/>
<path fill-rule="evenodd" clip-rule="evenodd" d="M54.7371 37.4553L53.1562 37.5094L53.0469 35.5477C53.0469 35.5477 53.1176 37.5235 54.7371 37.4553Z" fill="#0C0C0C"/>
<path fill-rule="evenodd" clip-rule="evenodd" d="M16.7939 38.0006C16.7939 38.0006 22.0769 36.2216 31.1313 36.8557C31.1313 36.8557 46.8669 36.7503 48.5764 37.4011L31.1056 37.2854C31.1056 37.2854 24.0578 36.5226 16.7939 38.0006Z" fill="#0C0C0C"/>
<path fill-rule="evenodd" clip-rule="evenodd" d="M14.0449 60.7498C14.0449 60.7498 13.9008 63.1938 14.9414 63.7314L17.9463 63.6324C17.9463 63.6324 14.3767 64.1932 14.0449 60.7498Z" fill="#0C0C0C"/>
<path fill-rule="evenodd" clip-rule="evenodd" d="M43.5276 59.0923L43.1713 60.1895C43.1713 60.1895 42.0226 63.6317 42.1756 63.8105L41.8721 63.9494L43.0696 59.756L43.5276 59.0923Z" fill="#0C0C0C"/>
<path fill-rule="evenodd" clip-rule="evenodd" d="M42.5586 63.8362C42.5586 63.8362 46.9707 63.9636 47.7592 61.6598C47.7592 61.6598 47.6087 64.7289 42.7104 63.9379L42.5586 63.8362Z" fill="#0C0C0C"/>
<path fill-rule="evenodd" clip-rule="evenodd" d="M14.0684 56.9719C14.0684 56.9719 16.1676 58.4126 16.5715 59.7851C16.5715 59.7851 16.7735 63.0408 17.4488 63.7315C17.4488 63.7315 16.9073 62.1841 16.8365 61.2476C16.8365 61.2476 16.6076 59.2963 16.1676 58.7728C16.1676 58.7728 15.8988 58.329 15.8126 58.2801L14.0684 56.9719Z" fill="#0C0C0C"/>
<path fill-rule="evenodd" clip-rule="evenodd" d="M13.2529 34.8885C13.2529 34.8885 13.797 34.1746 14.3759 34.2427C14.9534 34.3109 16.8919 34.8203 16.8919 34.8203L16.7903 35.6024C16.7903 35.6024 15.0551 35.4673 14.7824 35.2962C14.7824 35.2962 13.5591 34.7187 13.2529 34.8885Z" fill="#0C0C0C"/>
<path fill-rule="evenodd" clip-rule="evenodd" d="M14.1038 34.2767C14.1038 34.2767 13.5944 34.4117 13.2535 34.889C13.2535 34.889 12.7776 35.4331 12.7428 35.7727C12.7428 35.7727 12.4367 36.3271 12.4881 36.7464L11.8926 36.7927C11.8926 36.7927 12.6759 34.0387 14.1038 34.2767Z" fill="#0C0C0C"/>
<path fill-rule="evenodd" clip-rule="evenodd" d="M12.4886 36.7469C12.4886 36.7469 12.8449 36.7932 12.8115 37.336C12.778 37.8814 12.0975 42.3359 11.7914 42.4376C11.7914 42.4376 10.7379 42.8801 9.98926 42.5057C9.98926 42.5057 10.4305 43.356 11.9959 42.7103C11.9959 42.7103 12.369 42.1996 12.6082 40.0232L13.142 37.183C13.142 37.183 12.9812 36.7006 12.4886 36.7469Z" fill="#0C0C0C"/>
<g style="mix-blend-mode:overlay" opacity="0.353568">
<path fill-rule="evenodd" clip-rule="evenodd" d="M40.9871 25.0571C40.9871 25.0571 33.3168 25.8018 31.4593 32.2772L20.9102 32.8148C20.9102 32.8148 23.1355 43.3099 30.0264 45.9597L29.8463 52.2845L26.5276 59.9535C26.5276 59.9535 29.0307 67.7357 34.7755 68.3493C34.7755 68.3493 34.1593 72.144 30.2386 70.8718C26.3153 69.5996 26.4581 68.3493 26.4581 68.3493C26.4581 68.3493 15.7636 68.0522 15.0497 67.7653C14.3358 67.4798 13.3839 65.4667 14.0721 61.3839C14.0721 61.3839 13.6257 49.4147 16.7901 35.6023C16.7901 35.6023 17.6326 31.2262 17.9465 30.5766C17.9465 30.5766 18.7093 27.3236 21.4234 26.0887C21.4234 26.0887 23.3272 25.2011 24.7537 25.3529C24.7537 25.3529 25.7313 24.2493 26.022 24.4962C26.3153 24.7432 26.17 25.1355 26.17 25.1355L42.8729 24.7651L40.9871 25.0571Z" fill="#0C0C0C"/>
</g>
<g style="mix-blend-mode:overlay" opacity="0.353568">
<path fill-rule="evenodd" clip-rule="evenodd" d="M31.4588 32.2767L39.6861 32.1764C39.6861 32.1764 42.4375 41.151 48.6608 45.1L48.5771 52.3381L29.8457 52.2841L31.4588 32.2767Z" fill="#0C0C0C"/>
</g>
<g style="mix-blend-mode:overlay" opacity="0.350813">
<path fill-rule="evenodd" clip-rule="evenodd" d="M55.1991 32.3221C55.1991 32.3221 60.693 39.8123 62.3498 40.4671L62.0128 33.6856C62.0128 33.6856 66.2499 39.9551 69.3011 41.0318L68.9911 35.1031C68.9911 35.1031 73.16 41.8383 75.4934 42.3773L74.9879 36.4113C74.9879 36.4113 79.1736 42.3773 80.6091 43.0063L80.0779 37.6153C80.0779 37.6153 83.5394 43.1658 85.5293 43.8488L84.7189 46.6144L55.9362 44.6515L54.9547 43.67L55.8268 43.0153V38.3279L55.3908 37.4558H54.7373C54.7373 37.4558 54.5289 33.8117 53.9732 33.2033C53.9732 33.2033 53.7507 31.6893 55.1991 32.3221Z" fill="#0C0C0C"/>
</g>
</svg>
