<svg width="96" height="96" viewBox="0 0 96 96" fill="none" xmlns="http://www.w3.org/2000/svg">
<circle opacity="0.1" cx="48" cy="48" r="48" fill="#EF5222"/>
<mask id="mask0_790_47257" style="mask-type:alpha" maskUnits="userSpaceOnUse" x="0" y="0" width="96" height="96">
<circle cx="48" cy="48" r="48" fill="#EF5222"/>
</mask>
<g mask="url(#mask0_790_47257)">
<path d="M85.0569 72.1874C87.825 72.1874 90.0689 67.6088 90.0689 61.9609C90.0689 56.3129 87.825 51.7344 85.0569 51.7344C82.2889 51.7344 80.0449 56.3129 80.0449 61.9609C80.0449 67.6088 82.2889 72.1874 85.0569 72.1874Z" fill="#3F3D56"/>
<path d="M84.5938 78.7C86.6011 66.6562 84.614 54.656 84.5937 54.5363L84.2032 54.6024C84.2234 54.7215 86.1991 66.6587 84.2031 78.635L84.5938 78.7Z" fill="#CACACA"/>
<path d="M80.6439 59.7618L80.457 60.1111L84.9893 62.5353L85.1761 62.1861L80.6439 59.7618Z" fill="#CACACA"/>
<path d="M89.7728 60.9761L85.2412 63.4017L85.4281 63.751L89.9597 61.3253L89.7728 60.9761Z" fill="#CACACA"/>
<path d="M12.2731 60.7608C16.8421 60.7608 20.5461 53.2032 20.5461 43.8804C20.5461 34.5576 16.8421 27 12.2731 27C7.70397 27 4 34.5576 4 43.8804C4 53.2032 7.70397 60.7608 12.2731 60.7608Z" fill="#F2754E" fill-opacity="0.2"/>
<path d="M11.3647 78C15.0255 55.0723 11.4017 32.2281 11.3647 32L11.0001 32.0645C11.037 32.292 14.6502 55.0747 11 77.9367L11.3647 78Z" fill="#0C0C0C" fill-opacity="0.09"/>
<path d="M4.91401 40.3914L4.75635 40.6862L12.2376 44.6878L12.3953 44.393L4.91401 40.3914Z" fill="#0C0C0C" fill-opacity="0.09"/>
<path d="M20.1324 42.396L12.6523 46.3997L12.8101 46.6944L20.2902 42.6908L20.1324 42.396Z" fill="#0C0C0C" fill-opacity="0.09"/>
<path d="M74.3323 78.5476H22.1901C21.9984 78.5473 21.8145 78.4711 21.6789 78.3355C21.5433 78.1999 21.467 78.016 21.4668 77.8242V44.8765C21.467 44.6848 21.5433 44.5009 21.6789 44.3653C21.8145 44.2297 21.9984 44.1534 22.1901 44.1532H74.3323C74.5241 44.1534 74.7079 44.2297 74.8436 44.3653C74.9792 44.5009 75.0554 44.6848 75.0557 44.8765V77.8242C75.0554 78.016 74.9791 78.1998 74.8435 78.3354C74.7079 78.4711 74.5241 78.5473 74.3323 78.5476Z" fill="#F2754E" fill-opacity="0.15"/>
<path d="M26.9848 48.1458C26.9026 48.1458 26.8238 48.1785 26.7657 48.2366C26.7076 48.2948 26.6749 48.3736 26.6748 48.4558V74.2451C26.6749 74.3272 26.7076 74.406 26.7657 74.4642C26.8238 74.5223 26.9026 74.555 26.9848 74.5551H69.5366C69.6188 74.555 69.6976 74.5223 69.7557 74.4642C69.8138 74.406 69.8465 74.3272 69.8466 74.2451V48.4558C69.8465 48.3736 69.8138 48.2948 69.7557 48.2366C69.6976 48.1785 69.6188 48.1458 69.5366 48.1458H26.9848Z" fill="white"/>
<path d="M69 55.0896V53.4932H63.2391V48.5H61.6746V53.4932H51.4182V48.5H49.8537V53.4932H34.0347V48.5H32.4701V53.4932H27V55.0896H32.4701V61.2978H27V62.8942H32.4701V69.5458H27V71.1422H40.9012V74.5H42.4657V71.1422H49.8537V74.5H51.4182V71.1422H69V69.5458H51.4182V62.8942H69V61.2978H63.2391V55.0896H69ZM49.8537 55.0896V57.0407H34.0347V55.0896H49.8537ZM34.0347 58.6371H49.8537V61.2978H34.0347V58.6371ZM34.0347 69.5458V62.8942H40.9012V69.5458H34.0347ZM49.8537 69.5458H42.4657V62.8942H49.8537V69.5458ZM61.6746 61.2978H51.4182V55.0896H61.6746V61.2978Z" fill="#E6E6E6"/>
<path d="M95.0873 78.7243H1V78.4988H95.1281L95.0873 78.7243Z" fill="#CACACA"/>
<path d="M50.6708 63.9443C52.1017 63.9443 53.2616 62.7844 53.2616 61.3536C53.2616 59.9227 52.1017 58.7628 50.6708 58.7628C49.24 58.7628 48.0801 59.9227 48.0801 61.3536C48.0801 62.7844 49.24 63.9443 50.6708 63.9443Z" fill="#F2754E"/>
<path d="M50.9816 45.9631C59.808 45.9631 66.9632 38.8079 66.9632 29.9816C66.9632 21.1552 59.808 14 50.9816 14C42.1552 14 35 21.1552 35 29.9816C35 38.8079 42.1552 45.9631 50.9816 45.9631Z" fill="#F2754E"/>
<path d="M51.1381 55.9612L46.089 47.3362L41.04 38.7113L51.0339 38.6512L61.0279 38.5911L56.083 47.2761L51.1381 55.9612Z" fill="#F2754E"/>
<path d="M51.1099 35.615C54.2767 35.615 56.8439 33.0478 56.8439 29.8811C56.8439 26.7143 54.2767 24.1471 51.1099 24.1471C47.9432 24.1471 45.376 26.7143 45.376 29.8811C45.376 33.0478 47.9432 35.615 51.1099 35.615Z" fill="white"/>
</g>
</svg>
