<?xml version="1.0" encoding="utf-8"?>
<!-- Generator: Adobe Illustrator 27.1.0, SVG Export Plug-In . SVG Version: 6.00 Build 0)  -->
<svg version="1.1" id="Layer_1" xmlns="http://www.w3.org/2000/svg" xmlns:xlink="http://www.w3.org/1999/xlink" x="0px" y="0px"
	 viewBox="0 0 33 33" style="enable-background:new 0 0 33 33;" xml:space="preserve">
<style type="text/css">
	.st0{fill-rule:evenodd;clip-rule:evenodd;fill:#0064AA;stroke:#27AAE1;}
	.st1{fill:#0064AA;stroke:#27AAE1;}
</style>
<path class="st0" d="M26.7,0.5c1,0,2,0.4,2.6,1.1c0.7,0.7,1.1,1.6,1.1,2.6v22.5c0,0.3-0.1,0.5-0.3,0.7c-0.2,0.2-0.4,0.3-0.7,0.3H3.6
	c-0.3,0-0.5-0.1-0.7-0.3c-0.2-0.2-0.3-0.4-0.3-0.7V4.2c0-1,0.4-2,1.1-2.6c0.7-0.7,1.6-1.1,2.6-1.1H26.7z"/>
<path class="st0" d="M28.4,27.7v2.4c0,0.7-0.3,1.3-0.7,1.7c-0.4,0.4-1,0.7-1.7,0.7H7c-0.7,0-1.3-0.3-1.7-0.7c-0.4-0.4-0.7-1-0.7-1.7
	v-2.4H28.4z"/>
<path class="st1" d="M4.6,12.8c0-1.1-0.9-2-2-2s-2,0.9-2,2v8.9c0,1.1,0.9,2,2,2s2-0.9,2-2V12.8z"/>
<path class="st1" d="M32.5,12.8c0-1.1-0.9-2-2-2c-1.1,0-2,0.9-2,2v8.9c0,1.1,0.9,2,2,2c1.1,0,2-0.9,2-2V12.8z"/>
</svg>
