<svg width="33" height="33" viewBox="0 0 33 33" fill="none" xmlns="http://www.w3.org/2000/svg">
<path fill-rule="evenodd" clip-rule="evenodd" d="M26.7128 0.5C27.7468 0.5 28.683 0.919138 29.3607 1.59679C30.0383 2.27445 30.4575 3.21062 30.4575 4.24468V26.7128C30.4575 26.9948 30.3431 27.2501 30.1583 27.4349C29.9735 27.6197 29.7182 27.734 29.4362 27.734H3.56383C3.28182 27.734 3.0265 27.6197 2.84168 27.4349C2.65687 27.2501 2.54256 26.9948 2.54256 26.7128V4.24468C2.54256 3.21062 2.96169 2.27445 3.63935 1.59679C4.317 0.919138 5.25317 0.5 6.28724 0.5H26.7128Z" fill="#D5D9DD" stroke="#C0C6CC"/>
<path fill-rule="evenodd" clip-rule="evenodd" d="M28.4149 27.734V30.117C28.4149 30.7751 28.1482 31.3708 27.7169 31.802C27.2857 32.2333 26.69 32.5 26.0319 32.5H6.96809C6.31005 32.5 5.71431 32.2333 5.28307 31.802C4.85184 31.3708 4.58511 30.7751 4.58511 30.117V27.734H28.4149Z" fill="#D5D9DD" stroke="#C0C6CC"/>
<path d="M4.58511 12.7553C4.58511 11.6272 3.67062 10.7128 2.54255 10.7128C1.41448 10.7128 0.5 11.6272 0.5 12.7553V21.6064C0.5 22.7345 1.41448 23.6489 2.54255 23.6489C3.67062 23.6489 4.58511 22.7345 4.58511 21.6064V12.7553Z" fill="#D5D9DD" stroke="#C0C6CC"/>
<path d="M32.5 12.7553C32.5 11.6272 31.5855 10.7128 30.4574 10.7128C29.3294 10.7128 28.4149 11.6272 28.4149 12.7553V21.6064C28.4149 22.7345 29.3294 23.6489 30.4574 23.6489C31.5855 23.6489 32.5 22.7345 32.5 21.6064V12.7553Z" fill="#D5D9DD" stroke="#C0C6CC"/>
</svg>
